<svg width="25" height="24" viewBox="0 0 25 24" fill="none" xmlns="http://www.w3.org/2000/svg">
<path fill-rule="evenodd" clip-rule="evenodd" d="M12.3991 2.80624C13.7134 1.30666 16.1769 2.2476 16.1769 4.22857V9.72693H17.9087C19.7687 9.72693 20.7639 11.913 19.5317 13.3132L19.5316 13.3133L12.5963 21.1922C12.596 21.1926 12.5957 21.193 12.5953 21.1934C11.2811 22.6934 8.81731 21.7525 8.81731 19.7714V14.273H7.08552C5.22523 14.273 4.25075 12.0848 5.45696 10.693L5.46251 10.6866L5.46253 10.6866L12.3978 2.80772C12.3982 2.80723 12.3987 2.80674 12.3991 2.80624ZM13.9769 4.34347L7.17309 12.073H9.91731C10.5248 12.073 11.0173 12.5655 11.0173 13.173V19.6564L17.8211 11.9269H15.0769C14.4693 11.9269 13.9769 11.4344 13.9769 10.8269V4.34347Z" fill="white"/>
</svg>
