<svg width="22" height="23" viewBox="0 0 22 23" fill="none" xmlns="http://www.w3.org/2000/svg">
<path fill-rule="evenodd" clip-rule="evenodd" d="M9.24938 3.28412C5.67872 3.28412 2.78412 6.17872 2.78412 9.74938C2.78412 13.32 5.67872 16.2146 9.24938 16.2146C12.82 16.2146 15.7146 13.32 15.7146 9.74938C15.7146 6.17872 12.82 3.28412 9.24938 3.28412ZM0 9.74938C0 4.64109 4.14109 0.5 9.24938 0.5C14.3577 0.5 18.4988 4.64109 18.4988 9.74938C18.4988 14.8577 14.3577 18.9988 9.24938 18.9988C4.14109 18.9988 0 14.8577 0 9.74938Z" fill="#4D4D4D"/>
<path fill-rule="evenodd" clip-rule="evenodd" d="M16.5027 17.0027C17.0463 16.459 17.9277 16.459 18.4713 17.0027L21.5923 20.1236C22.1359 20.6672 22.1359 21.5486 21.5923 22.0923C21.0486 22.6359 20.1672 22.6359 19.6236 22.0923L16.5027 18.9713C15.959 18.4277 15.959 17.5463 16.5027 17.0027Z" fill="#4D4D4D"/>
</svg>
